<svg width="600" height="460" viewBox="0 0 600 460" fill="none" xmlns="http://www.w3.org/2000/svg">
<g clip-path="url(#clip0_121_4)">
<path d="M119.887 344.144C119.404 343.33 117.315 344.201 116.931 343.463C116.548 342.726 118.489 341.604 119.598 339.042C119.798 338.58 121.058 335.667 120.125 334.769C118.357 333.065 110.266 340.095 107.434 337.794C106.813 337.29 106.378 336.282 104.498 334.646C103.749 333.995 103.297 333.701 102.859 333.81C102.238 333.965 102.189 334.797 101.522 336.432C100.523 338.884 99.9323 338.736 99.3502 340.692C98.918 342.144 99.0167 342.988 98.5082 343.153C97.7886 343.386 97.1263 341.845 96.2143 341.983C95.2837 342.124 94.7211 343.917 94.5434 345.26C94.21 347.78 95.1353 349.443 95.6482 351.191C96.2056 353.091 96.5364 355.981 95.2492 360.071L82.5088 395.968C85.3215 388.602 93.4656 368.41 96.8877 360.907C97.8756 358.741 98.9664 356.544 101.206 355.677C103.363 354.842 106.324 355.34 110.099 354.431C110.54 354.325 111.764 354.013 111.918 353.293C112.045 352.698 111.326 352.366 111.436 351.809C111.585 351.062 113 351.052 114.739 350.19C115.966 349.582 116.73 348.859 117.387 348.237C117.585 348.049 120.529 345.228 119.887 344.144H119.887Z" fill="#F2F2F2"/>
<path d="M69.7619 363.041C69.223 363.043 69.0482 364.32 68.5747 364.295C68.1029 364.271 68.1123 362.994 67.1745 361.711C67.0054 361.479 65.9396 360.021 65.2294 360.219C63.8832 360.595 64.9986 366.595 63.0526 367.321C62.6255 367.48 62.0056 367.403 60.6599 367.854C60.1246 368.033 59.8498 368.17 59.7771 368.417C59.674 368.766 60.0679 369.031 60.6781 369.829C61.5933 371.027 61.3501 371.274 62.1423 372.124C62.7303 372.756 63.1732 372.951 63.1072 373.248C63.0138 373.668 62.0667 373.549 61.8713 374.036C61.6719 374.534 62.3898 375.327 62.9975 375.802C64.1381 376.693 65.2212 376.718 66.2273 376.971C67.3207 377.245 68.8344 377.917 70.4707 379.729L84.4128 396.339C81.6091 392.833 74.0488 383.01 71.3535 379.166C70.5754 378.056 69.8118 376.887 70.0324 375.537C70.2449 374.238 71.344 372.928 71.9869 370.813C72.062 370.566 72.2623 369.875 71.9535 369.592C71.6982 369.358 71.3275 369.615 71.0859 369.4C70.7618 369.112 71.1657 368.415 71.2443 367.312C71.2997 366.535 71.1652 365.951 71.0495 365.449C71.0146 365.298 70.4794 363.038 69.7619 363.041V363.041Z" fill="#F2F2F2"/>
<path d="M80.5137 365.455L80.189 362.556L80.3373 362.336C81.0238 361.32 81.3737 360.328 81.3779 359.386C81.3786 359.236 81.3716 359.087 81.3646 358.934C81.3366 358.329 81.3016 357.578 81.6935 356.702C81.9132 356.213 82.5304 355.082 83.4584 355.222C83.7082 355.257 83.8971 355.372 84.0406 355.506C84.0616 355.473 84.0833 355.439 84.1064 355.403C84.3954 354.962 84.6242 354.773 84.8446 354.591C85.014 354.451 85.1889 354.307 85.4632 353.966C85.5836 353.816 85.6774 353.684 85.7565 353.574C85.9965 353.239 86.31 352.84 86.8628 352.847C87.4534 352.875 87.7627 353.364 87.9678 353.687C88.3338 354.264 88.4996 354.679 88.6095 354.955C88.6494 355.056 88.6949 355.169 88.718 355.204C88.9083 355.484 90.4555 355.222 91.0384 355.127C92.3477 354.909 93.4807 354.72 93.9474 355.546C94.2819 356.136 94.0335 356.917 93.1868 357.929C92.923 358.244 92.6423 358.483 92.3932 358.671C92.5996 358.794 92.7844 358.983 92.8593 359.28C93.0356 359.982 92.4317 360.686 91.065 361.375C90.7256 361.547 90.2687 361.777 89.6284 361.887C89.3268 361.939 89.0552 361.952 88.8229 361.959C88.818 362.093 88.7865 362.238 88.7046 362.388C88.4646 362.829 87.965 363.039 87.212 362.989C86.3835 362.945 85.7012 362.787 85.0993 362.648C84.5738 362.528 84.1211 362.426 83.7656 362.45C83.1064 362.503 82.5983 363.031 82.0021 363.715L80.5137 365.455V365.455Z" fill="#F2F2F2"/>
<path d="M82.02 348.197L79.2986 349.246L79.0484 349.158C77.8914 348.752 76.8429 348.665 75.9307 348.9C75.7857 348.937 75.6426 348.982 75.4968 349.028C74.919 349.208 74.2009 349.433 73.2541 349.276C72.7258 349.187 71.4754 348.877 71.3754 347.944C71.3459 347.693 71.409 347.482 71.5026 347.309C71.4648 347.297 71.4268 347.284 71.3857 347.271C70.886 347.104 70.6452 346.93 70.4133 346.763C70.2349 346.635 70.0511 346.502 69.6512 346.323C69.4758 346.245 69.3248 346.188 69.1978 346.139C68.8133 345.992 68.348 345.79 68.2145 345.253C68.0918 344.675 68.4858 344.252 68.7465 343.971C69.2114 343.471 69.5714 343.205 69.8103 343.029C69.8976 342.965 69.9958 342.892 70.0237 342.861C70.2462 342.606 69.6006 341.176 69.3607 340.636C68.8174 339.425 68.3473 338.377 69.0276 337.716C69.5141 337.243 70.3325 337.285 71.5261 337.847C71.8976 338.022 72.2003 338.233 72.4449 338.427C72.5116 338.196 72.6475 337.969 72.9156 337.821C73.5504 337.473 74.3846 337.878 75.3973 339.025C75.6499 339.31 75.9878 339.694 76.2572 340.285C76.3838 340.564 76.4648 340.823 76.5306 341.046C76.6618 341.017 76.8105 341.01 76.9762 341.052C77.4635 341.172 77.7933 341.602 77.9356 342.343C78.1038 343.156 78.1238 343.856 78.1425 344.473C78.1593 345.012 78.1754 345.476 78.2885 345.814C78.5072 346.438 79.1464 346.795 79.9597 347.198L82.02 348.197L82.02 348.197Z" fill="#F2F2F2"/>
<path d="M80.5137 339.658L80.189 336.759L80.3373 336.54C81.0238 335.523 81.3737 334.531 81.3779 333.589C81.3786 333.439 81.3716 333.29 81.3646 333.137C81.3366 332.533 81.3016 331.781 81.6935 330.905C81.9132 330.416 82.5304 329.286 83.4584 329.426C83.7082 329.461 83.8971 329.575 84.0406 329.71C84.0616 329.676 84.0833 329.642 84.1064 329.606C84.3954 329.165 84.6242 328.976 84.8446 328.794C85.014 328.654 85.1889 328.51 85.4632 328.169C85.5836 328.019 85.6774 327.887 85.7565 327.777C85.9965 327.442 86.31 327.043 86.8628 327.05C87.4534 327.078 87.7627 327.567 87.9678 327.89C88.3338 328.467 88.4996 328.883 88.6095 329.158C88.6494 329.259 88.6949 329.372 88.718 329.407C88.9083 329.687 90.4555 329.426 91.0384 329.33C92.3477 329.112 93.4807 328.923 93.9474 329.749C94.2819 330.339 94.0335 331.12 93.1868 332.132C92.923 332.447 92.6423 332.687 92.3932 332.874C92.5996 332.997 92.7844 333.186 92.8593 333.483C93.0356 334.185 92.4317 334.889 91.065 335.578C90.7256 335.75 90.2687 335.98 89.6284 336.09C89.3268 336.142 89.0552 336.155 88.8229 336.162C88.818 336.296 88.7865 336.442 88.7046 336.591C88.4646 337.032 87.965 337.242 87.212 337.192C86.3835 337.148 85.7012 336.99 85.0993 336.852C84.5738 336.731 84.1211 336.629 83.7656 336.653C83.1064 336.706 82.5983 337.234 82.0021 337.918L80.5137 339.658V339.658Z" fill="#F2F2F2"/>
<path d="M83.4792 395.92L82.8718 395.54L82.7249 394.839L82.8718 395.54L82.1636 395.621C82.1524 395.555 82.114 395.404 82.0559 395.167C81.7389 393.871 80.7725 389.927 79.9663 383.716C79.4037 379.38 79.0853 374.923 79.0195 370.465C78.9537 366 79.1651 362.621 79.3344 359.904C79.4625 357.855 79.6178 355.904 79.7704 354.003C80.1763 348.926 80.559 344.129 80.2742 338.819C80.2112 337.634 80.079 335.167 78.6374 332.541C77.8012 331.018 76.6493 329.666 75.2134 328.524L76.1063 327.402C77.6913 328.664 78.9656 330.162 79.8942 331.852C81.4925 334.763 81.6367 337.452 81.706 338.744C81.9957 344.148 81.6087 348.99 81.1986 354.117C81.0475 356.01 80.8921 357.953 80.7648 359.994C80.5968 362.685 80.3876 366.035 80.4527 370.443C80.517 374.847 80.8319 379.25 81.3869 383.531C82.1832 389.664 83.1356 393.55 83.4484 394.826C83.615 395.508 83.65 395.65 83.4792 395.92H83.4792Z" fill="#F2F2F2"/>
<path d="M72.5848 330.801C72.526 330.801 72.4665 330.8 72.4064 330.796C71.1859 330.73 70.0558 329.999 69.0467 328.625C68.5736 327.978 68.3315 327.241 67.8487 325.77C67.7738 325.543 67.4099 324.393 67.1888 322.81C67.0439 321.775 67.0621 321.343 67.2671 320.961C67.4946 320.535 67.8626 320.239 68.2769 320.039C68.2587 319.901 68.2734 319.76 68.3329 319.616C68.5771 319.018 69.2265 319.097 69.5778 319.135C69.7556 319.157 69.9774 319.186 70.2167 319.174C70.5932 319.156 70.7955 319.044 71.102 318.876C71.3952 318.715 71.7598 318.514 72.3007 318.404C73.3672 318.181 74.2608 318.484 74.5554 318.583C76.1054 319.1 76.8696 320.305 77.7541 321.7C77.9305 321.98 78.5358 322.999 78.9354 324.395C79.2237 325.403 79.1831 325.851 79.0963 326.184C78.92 326.869 78.5036 327.26 77.4462 328.125C76.3419 329.031 75.7877 329.484 75.3119 329.76C74.2041 330.4 73.5085 330.801 72.5848 330.801V330.801Z" fill="#F2F2F2"/>
<path d="M528.118 345.061C527.636 344.247 525.547 345.119 525.163 344.38C524.78 343.644 526.721 342.522 527.83 339.959C528.03 339.497 529.29 336.585 528.357 335.686C526.589 333.983 518.497 341.012 515.666 338.712C515.044 338.207 514.61 337.199 512.73 335.563C511.981 334.912 511.529 334.618 511.091 334.727C510.47 334.883 510.42 335.714 509.754 337.349C508.755 339.801 508.164 339.653 507.582 341.609C507.15 343.061 507.249 343.906 506.74 344.07C506.021 344.303 505.358 342.763 504.446 342.901C503.516 343.041 502.953 344.835 502.775 346.177C502.442 348.697 503.367 350.36 503.88 352.109C504.438 354.009 504.768 356.898 503.481 360.989L490.741 396.885C493.553 389.519 501.697 369.328 505.12 361.824C506.108 359.658 507.198 357.461 509.438 356.594C511.594 355.759 514.556 356.258 518.331 355.348C518.772 355.242 519.996 354.931 520.15 354.211C520.277 353.616 519.558 353.284 519.668 352.726C519.816 351.979 521.232 351.97 522.971 351.107C524.197 350.499 524.962 349.776 525.619 349.154C525.817 348.967 528.761 346.145 528.118 345.061V345.061Z" fill="#F2F2F2"/>
<path d="M477.994 363.959C477.455 363.961 477.28 365.237 476.807 365.213C476.335 365.188 476.344 363.912 475.406 362.628C475.237 362.397 474.172 360.938 473.461 361.137C472.115 361.513 473.231 367.512 471.285 368.238C470.857 368.398 470.238 368.32 468.892 368.771C468.356 368.95 468.082 369.088 468.009 369.334C467.906 369.684 468.3 369.948 468.91 370.747C469.825 371.944 469.582 372.192 470.374 373.042C470.962 373.673 471.405 373.868 471.339 374.165C471.246 374.586 470.299 374.466 470.103 374.954C469.904 375.451 470.622 376.245 471.229 376.719C472.37 377.61 473.453 377.635 474.459 377.888C475.553 378.163 477.066 378.834 478.703 380.646L492.645 397.257C489.841 393.751 482.281 383.928 479.585 380.083C478.807 378.973 478.044 377.804 478.264 376.455C478.477 375.155 479.576 373.846 480.219 371.73C480.294 371.483 480.494 370.793 480.185 370.51C479.93 370.275 479.559 370.533 479.318 370.318C478.994 370.029 479.398 369.332 479.476 368.229C479.532 367.452 479.397 366.868 479.281 366.366C479.247 366.215 478.711 363.956 477.994 363.959V363.959Z" fill="#F2F2F2"/>
<path d="M488.746 366.372L488.421 363.474L488.569 363.254C489.256 362.238 489.606 361.245 489.61 360.303C489.611 360.154 489.603 360.004 489.597 359.851C489.569 359.247 489.534 358.495 489.925 357.619C490.145 357.131 490.762 356 491.69 356.14C491.94 356.175 492.129 356.29 492.272 356.424C492.293 356.39 492.315 356.357 492.338 356.32C492.627 355.879 492.856 355.69 493.077 355.509C493.246 355.369 493.421 355.224 493.695 354.883C493.816 354.733 493.909 354.602 493.988 354.491C494.228 354.157 494.542 353.758 495.095 353.765C495.685 353.793 495.995 354.281 496.2 354.604C496.566 355.181 496.732 355.597 496.841 355.872C496.881 355.973 496.927 356.087 496.95 356.122C497.14 356.401 498.687 356.14 499.27 356.045C500.58 355.826 501.713 355.637 502.179 356.463C502.514 357.054 502.265 357.835 501.419 358.847C501.155 359.161 500.874 359.401 500.625 359.588C500.832 359.711 501.016 359.9 501.091 360.197C501.268 360.9 500.664 361.604 499.297 362.292C498.958 362.464 498.501 362.694 497.86 362.805C497.559 362.856 497.287 362.869 497.055 362.876C497.05 363.01 497.018 363.156 496.937 363.306C496.697 363.746 496.197 363.956 495.444 363.906C494.615 363.863 493.933 363.704 493.331 363.566C492.806 363.446 492.353 363.343 491.997 363.367C491.338 363.42 490.83 363.948 490.234 364.632L488.746 366.372V366.372Z" fill="#F2F2F2"/>
<path d="M490.252 349.114L487.531 350.164L487.28 350.076C486.123 349.669 485.075 349.583 484.163 349.818C484.018 349.855 483.875 349.9 483.729 349.945C483.151 350.126 482.433 350.35 481.486 350.193C480.958 350.105 479.707 349.794 479.607 348.861C479.578 348.611 479.641 348.399 479.735 348.226C479.697 348.214 479.659 348.202 479.618 348.189C479.118 348.021 478.877 347.848 478.645 347.68C478.467 347.552 478.283 347.419 477.883 347.241C477.708 347.162 477.557 347.105 477.43 347.057C477.045 346.909 476.58 346.707 476.446 346.171C476.324 345.592 476.718 345.169 476.978 344.889C477.443 344.389 477.803 344.123 478.042 343.946C478.13 343.882 478.228 343.81 478.256 343.778C478.478 343.523 477.833 342.093 477.593 341.553C477.049 340.342 476.579 339.294 477.26 338.633C477.746 338.16 478.564 338.202 479.758 338.764C480.13 338.94 480.432 339.151 480.677 339.344C480.744 339.113 480.88 338.886 481.148 338.739C481.782 338.39 482.617 338.796 483.629 339.943C483.882 340.227 484.22 340.611 484.489 341.203C484.616 341.481 484.697 341.741 484.762 341.964C484.894 341.934 485.043 341.928 485.208 341.969C485.695 342.089 486.025 342.519 486.168 343.26C486.336 344.073 486.356 344.773 486.374 345.39C486.391 345.929 486.407 346.393 486.52 346.731C486.739 347.355 487.378 347.713 488.192 348.116L490.252 349.114L490.252 349.114Z" fill="#F2F2F2"/>
<path d="M488.746 340.575L488.421 337.677L488.569 337.457C489.256 336.441 489.606 335.449 489.61 334.507C489.611 334.357 489.603 334.207 489.597 334.055C489.569 333.45 489.534 332.698 489.925 331.822C490.145 331.334 490.762 330.203 491.69 330.343C491.94 330.378 492.129 330.493 492.272 330.627C492.293 330.593 492.315 330.56 492.338 330.523C492.627 330.083 492.856 329.894 493.077 329.712C493.246 329.572 493.421 329.428 493.695 329.086C493.816 328.936 493.909 328.805 493.988 328.694C494.228 328.36 494.542 327.961 495.095 327.968C495.685 327.996 495.995 328.484 496.2 328.808C496.566 329.384 496.732 329.8 496.841 330.076C496.881 330.176 496.927 330.29 496.95 330.325C497.14 330.605 498.687 330.343 499.27 330.248C500.58 330.029 501.713 329.84 502.179 330.666C502.514 331.257 502.265 332.038 501.419 333.05C501.155 333.365 500.874 333.604 500.625 333.791C500.832 333.915 501.016 334.104 501.091 334.4C501.268 335.103 500.664 335.807 499.297 336.495C498.958 336.668 498.501 336.897 497.86 337.008C497.559 337.059 497.287 337.072 497.055 337.079C497.05 337.213 497.018 337.359 496.937 337.509C496.697 337.95 496.197 338.16 495.444 338.109C494.615 338.066 493.933 337.908 493.331 337.769C492.806 337.649 492.353 337.546 491.997 337.57C491.338 337.623 490.83 338.151 490.234 338.835L488.746 340.575V340.575Z" fill="#F2F2F2"/>
<path d="M491.711 396.838L491.104 396.457L490.957 395.756L491.104 396.457L490.396 396.538C490.384 396.473 490.346 396.321 490.288 396.085C489.971 394.789 489.004 390.845 488.198 384.634C487.636 380.298 487.317 375.84 487.251 371.382C487.186 366.918 487.397 363.538 487.566 360.821C487.694 358.772 487.85 356.821 488.002 354.921C488.408 349.843 488.791 345.047 488.506 339.737C488.443 338.551 488.311 336.084 486.869 333.458C486.033 331.936 484.881 330.584 483.445 329.442L484.338 328.319C485.923 329.582 487.198 331.079 488.126 332.77C489.725 335.681 489.869 338.369 489.938 339.661C490.228 345.065 489.841 349.907 489.431 355.034C489.279 356.928 489.124 358.87 488.997 360.911C488.829 363.602 488.62 366.953 488.685 371.36C488.749 375.765 489.064 380.168 489.619 384.449C490.415 390.582 491.368 394.467 491.68 395.743C491.847 396.425 491.882 396.568 491.711 396.838V396.838Z" fill="#F2F2F2"/>
<path d="M480.817 331.719C480.758 331.719 480.698 331.717 480.638 331.713C479.418 331.647 478.288 330.917 477.279 329.542C476.806 328.896 476.563 328.158 476.081 326.687C476.006 326.461 475.642 325.31 475.421 323.727C475.276 322.693 475.294 322.26 475.499 321.878C475.727 321.453 476.095 321.156 476.509 320.956C476.491 320.819 476.505 320.677 476.565 320.533C476.809 319.936 477.458 320.014 477.81 320.052C477.988 320.074 478.209 320.104 478.449 320.091C478.825 320.073 479.027 319.961 479.334 319.793C479.627 319.632 479.992 319.432 480.533 319.321C481.599 319.099 482.493 319.401 482.787 319.5C484.337 320.017 485.101 321.222 485.986 322.617C486.162 322.897 486.768 323.916 487.167 325.313C487.456 326.321 487.415 326.768 487.328 327.101C487.152 327.786 486.735 328.178 485.678 329.043C484.574 329.948 484.02 330.402 483.544 330.677C482.436 331.317 481.74 331.719 480.817 331.719V331.719Z" fill="#F2F2F2"/>
<path d="M293.849 178.98C328.302 178.98 356.231 151.051 356.231 116.599C356.231 82.1464 328.302 54.2173 293.849 54.2173C259.397 54.2173 231.468 82.1464 231.468 116.599C231.468 151.051 259.397 178.98 293.849 178.98Z" fill="#FF6884"/>
<path d="M534.866 395.54C534.866 395.965 534.521 396.31 534.096 396.31H0V394.769H534.096C534.521 394.769 534.866 395.114 534.866 395.54V395.54Z" fill="#E6E6E6"/>
<path d="M454.39 395.481C454.39 430.44 458.059 456.028 419.988 458.78C379.107 461.735 385.587 430.44 385.587 395.481C385.587 360.522 380.083 325.76 419.988 332.182C438.747 335.2 454.39 360.522 454.39 395.481Z" fill="#3F3D56"/>
<path d="M396.595 439.515C399.635 439.515 402.099 419.8 402.099 395.481C402.099 371.161 399.635 351.447 396.595 351.447C393.555 351.447 391.091 371.161 391.091 395.481C391.091 419.8 393.555 439.515 396.595 439.515Z" fill="#E6E6E6"/>
<path d="M178.845 339.185C178.845 370.035 182.083 392.616 148.486 395.045C112.41 397.653 118.128 370.035 118.128 339.185C118.128 308.334 113.27 277.658 148.486 283.325C165.04 285.988 178.845 308.334 178.845 339.185Z" fill="#3F3D56"/>
<path d="M127.843 378.044C130.525 378.044 132.7 360.646 132.7 339.185C132.7 317.723 130.525 300.326 127.843 300.326C125.16 300.326 122.985 317.723 122.985 339.185C122.985 360.646 125.16 378.044 127.843 378.044Z" fill="#E6E6E6"/>
<path d="M231.009 395.022C231.009 429.981 234.679 455.569 196.608 458.321C155.726 461.276 162.206 429.981 162.206 395.022C162.206 360.063 156.702 325.302 196.608 331.723C215.366 334.742 231.009 360.063 231.009 395.022Z" fill="#3F3D56"/>
<path d="M173.214 439.056C176.254 439.056 178.718 419.341 178.718 395.022C178.718 370.703 176.254 350.988 173.214 350.988C170.174 350.988 167.71 370.703 167.71 395.022C167.71 419.341 170.174 439.056 173.214 439.056Z" fill="#E6E6E6"/>
<path d="M122.3 265.214V286.913L116.337 296.863L118.172 331.723L119.657 332.641L118.631 297.322C129.083 293.431 132.5 300.598 131.474 314.752L129.639 338.604L158.995 356.951L162.665 319.339L176.425 312.917L191.562 376.675H445.169C455.623 376.675 463.977 367.975 463.554 357.53L460.353 278.515L451.717 269.88L443.718 177.349C441.723 154.274 422.156 136.711 399 137.21L240.355 140.629C231.748 140.814 223.245 142.547 215.253 145.744L176.884 161.091L152.119 185.857L148.446 245.49L139.081 244.676C132.346 244.09 126.202 248.542 124.661 255.125L122.3 265.214H122.3Z" fill="#E6E6E6"/>
<path d="M204.405 350.988C209.472 350.988 213.579 346.881 213.579 341.814C213.579 336.748 209.472 332.641 204.405 332.641C199.339 332.641 195.231 336.748 195.231 341.814C195.231 346.881 199.339 350.988 204.405 350.988Z" fill="#3F3D56"/>
<path d="M225.505 350.988C230.571 350.988 234.679 346.881 234.679 341.814C234.679 336.748 230.571 332.641 225.505 332.641C220.438 332.641 216.331 336.748 216.331 341.814C216.331 346.881 220.438 350.988 225.505 350.988Z" fill="#3F3D56"/>
<path d="M430.997 350.988C436.064 350.988 440.171 346.881 440.171 341.814C440.171 336.748 436.064 332.641 430.997 332.641C425.93 332.641 421.823 336.748 421.823 341.814C421.823 346.881 425.93 350.988 430.997 350.988Z" fill="#3F3D56"/>
<path d="M452.097 350.988C457.163 350.988 461.27 346.881 461.27 341.814C461.27 336.748 457.163 332.641 452.097 332.641C447.03 332.641 442.923 336.748 442.923 341.814C442.923 346.881 447.03 350.988 452.097 350.988Z" fill="#3F3D56"/>
<path d="M437.781 255.646H222.111C220.462 255.646 218.928 254.99 217.79 253.797C216.652 252.603 216.068 251.039 216.146 249.392L219.297 182.768C219.446 179.618 222.033 177.119 225.185 177.078L428.828 174.457C431.835 174.428 434.443 176.658 434.829 179.669L443.704 248.915C443.922 250.616 443.398 252.331 442.264 253.619C441.13 254.907 439.496 255.646 437.781 255.646H437.781Z" fill="white"/>
<path d="M191.999 252.37H178.005C176.345 252.37 174.747 251.672 173.62 250.452C172.493 249.233 171.922 247.585 172.052 245.929L176.08 194.812C176.301 192.005 178.401 189.767 181.189 189.369L195.649 187.303C197.459 187.046 199.262 187.617 200.593 188.873C201.924 190.129 202.598 191.895 202.444 193.718L197.95 246.901C197.687 250.019 195.128 252.37 191.999 252.37V252.37Z" fill="white"/>
<path d="M159.818 251.071C159.674 251.071 159.528 251.066 159.383 251.056L157.74 250.939C156.117 250.822 154.645 250.073 153.597 248.829C152.549 247.584 152.061 246.007 152.223 244.387L156.743 199.185C157.011 196.509 159.05 194.331 161.704 193.889C163.512 193.585 165.329 194.119 166.688 195.348C168.048 196.575 168.761 198.328 168.645 200.157L165.768 245.477C165.666 247.078 164.945 248.541 163.737 249.597C162.639 250.556 161.261 251.071 159.818 251.071L159.818 251.071Z" fill="white"/>
<path d="M137.065 343.295L134.685 291.359C134.685 291.359 129.181 284.02 125.511 285.854C121.842 287.689 116.392 297.892 116.392 297.892C116.392 297.892 127.028 297.195 126.728 308.496C126.429 319.797 128.55 338.08 128.55 338.08L137.065 343.295V343.295Z" fill="#CCCCCC"/>
<path d="M159.219 356.864L160.371 318.118L172.041 304.336C172.041 304.336 187.636 300.966 187.306 318.638C186.975 336.31 192.021 377.133 192.021 377.133L180.617 369.971C180.617 369.971 177.801 326.219 169.545 321.632C161.289 317.045 164.041 320.715 164.041 320.715L159.219 356.864H159.219Z" fill="#CCCCCC"/>
<path d="M147.066 257.537L138.024 252.37H139.012C140.422 252.37 141.565 251.227 141.565 249.817V227.402C141.565 225.992 140.422 224.849 139.012 224.849H129.441C128.03 224.849 126.887 225.992 126.887 227.402V249.817C126.887 251.227 128.03 252.37 129.441 252.37H134.327L146.156 259.13L147.066 257.537V257.537Z" fill="#3F3D56"/>
<path d="M159.281 291.122L152.228 289.094C150.524 288.604 148.745 289.588 148.255 291.292C147.765 292.996 148.749 294.775 150.453 295.265L157.506 297.293C159.211 297.783 160.989 296.799 161.479 295.095C161.97 293.391 160.985 291.612 159.281 291.122Z" fill="#3F3D56"/>
<path d="M446.619 225.996L416.461 224.694C414.689 224.617 413.191 225.991 413.114 227.763C413.038 229.535 414.412 231.033 416.184 231.109L446.342 232.411C448.114 232.488 449.612 231.113 449.688 229.342C449.765 227.57 448.391 226.072 446.619 225.996Z" fill="#3F3D56"/>
<path d="M475.057 286.542L444.899 285.24C443.128 285.164 441.629 286.538 441.553 288.31C441.476 290.081 442.851 291.58 444.622 291.656L474.781 292.958C476.552 293.034 478.05 291.66 478.127 289.889C478.203 288.117 476.829 286.619 475.057 286.542Z" fill="#3F3D56"/>
<path d="M352.102 356.492C390.608 356.492 421.823 325.277 421.823 286.772C421.823 248.266 390.608 217.051 352.102 217.051C313.597 217.051 282.382 248.266 282.382 286.772C282.382 325.277 313.597 356.492 352.102 356.492Z" fill="#3F3D56"/>
<path d="M352.103 328.054C374.902 328.054 393.385 309.571 393.385 286.772C393.385 263.972 374.902 245.49 352.103 245.49C329.303 245.49 310.821 263.972 310.821 286.772C310.821 309.571 329.303 328.054 352.103 328.054Z" fill="#E6E6E6"/>
<rect x="341.52" y="259.696" width="5.08754" height="58.8112" rx="2.54377" transform="rotate(-32 341.52 259.696)" fill="#3F3D56"/>
<rect width="5.08754" height="58.8112" rx="2.54377" transform="matrix(-0.848048 -0.529919 -0.529919 0.848048 362.479 259.924)" fill="#3F3D56"/>
<rect width="5.08754" height="48.049" rx="2.54377" transform="matrix(0 -1 -1 0 376.18 309.234)" fill="#3F3D56"/>
<rect width="5.08754" height="24.8724" rx="2.54377" transform="matrix(0 -1 -1 0 364.309 290.579)" fill="#3F3D56"/>
<rect width="5.08754" height="18.6543" rx="2.54377" transform="matrix(1 0 0 -1 349.611 275.882)" fill="#3F3D56"/>
<rect width="5.06238" height="18.5694" rx="2.53119" transform="matrix(0.852264 -0.523112 -0.536746 -0.843744 360.782 310.026)" fill="#3F3D56"/>
<rect width="5.06238" height="18.4371" rx="2.53119" transform="matrix(-0.852264 -0.523112 0.536746 -0.843744 343.11 309.957)" fill="#3F3D56"/>
<rect x="347.351" y="296.797" width="4.52226" height="9.04452" rx="2.26113" transform="rotate(-90 347.351 296.797)" fill="#3F3D56"/>
<path d="M444.475 148.309C444.826 152.379 447.21 155.497 449.8 155.273C452.39 155.05 454.204 151.569 453.853 147.498C453.735 145.87 453.228 144.294 452.376 142.901L450.672 125.676L442.605 126.648L445.142 143.526C444.541 145.044 444.312 146.685 444.475 148.309L444.475 148.309Z" fill="#FFB6B6"/>
<path d="M421.129 48.5975C421.129 48.5975 430.029 46.0906 433.45 50.3352C436.871 54.5797 449.633 96.2622 449.633 96.2622L453.595 141.123L440.96 137.3L436.043 101.921L427.786 83.5733L421.129 48.5975V48.5975Z" fill="#6D67E4"/>
<path d="M418.224 21.6114H391.099V47.3333H418.224V21.6114Z" fill="#2F2E41"/>
<path d="M404.374 34.7161C411.678 34.7161 417.599 28.7948 417.599 21.4906C417.599 14.1863 411.678 8.26508 404.374 8.26508C397.07 8.26508 391.148 14.1863 391.148 21.4906C391.148 28.7948 397.07 34.7161 404.374 34.7161Z" fill="#FFB6B6"/>
<path d="M398.114 0.0985507C389.661 1.40686 390.064 4.54776 387.357 6.17827C382.589 9.05087 380.708 17.3461 383.226 22.82C383.899 24.2825 385.317 26.2777 384.629 28.432C384.1 30.0858 382.577 31.0614 382.291 31.238C379.949 32.6841 381.478 30.9638 380.42 32.1734C379.252 33.5085 381.061 35.3944 379.952 37.7854C378.969 39.9051 376.942 39.7262 376.678 41.0591C376.225 43.3544 381.429 47.9694 386.967 47.6065C391.898 47.2834 395.561 43.1145 396.788 39.1884C397.61 36.5585 397.964 32.0347 395.853 29.835C395.557 29.5265 394.747 28.7794 393.982 27.4967C393.377 26.4816 392.58 25.1454 393.047 24.223C393.544 23.2403 394.955 23.7575 395.853 22.82C397.071 21.5485 395.624 19.4003 395.853 17.2079C396.241 13.4955 401.501 9.03057 407.077 9.72517C413.403 10.5131 415.723 17.3916 415.963 18.1432C416.46 19.7012 416.45 21.2085 416.43 24.223C416.402 28.549 416.384 31.2605 415.027 34.0441C413.076 38.0477 410.59 37.6151 409.883 40.5914C408.781 45.232 413.967 49.8925 414.56 50.4125C418.957 54.2676 425.6 55.4267 426.719 53.6862C427.728 52.1178 423.299 49.678 423.446 44.8005C423.573 40.5737 426.993 39.2852 426.252 36.3824C425.435 33.1871 421.077 33.916 419.237 30.3027C417.518 26.93 420.685 25.0587 420.172 18.1432C420.063 16.6803 419.604 12.4818 416.898 8.32216C415.706 6.48961 414.494 4.62583 412.221 3.64545C409.678 2.54792 402.585 -0.59349 398.114 0.0985415V0.0985507Z" fill="#2F2E41"/>
<path d="M392.502 11.7903C392.845 14.6863 397.194 16.1055 399.049 16.467C399.835 16.6201 402.491 17.1375 405.129 15.9993C406.104 15.5787 406.459 15.1982 407.467 15.064C408.832 14.8824 409.52 15.4014 411.676 15.9993C414.075 16.6643 415.274 16.9967 415.885 16.467C416.885 15.6011 416.117 12.7683 414.95 10.855C412.792 7.31712 408.842 6.22159 407 5.71059C404.895 5.1268 400.623 3.94209 396.711 6.17826C396.188 6.47723 392.153 8.84795 392.502 11.7903V11.7903Z" fill="#2F2E41"/>
<path d="M456.879 272L463.629 272.159L467.392 241.833L457.43 241.598L456.879 272Z" fill="#FFB6B6"/>
<path d="M480.038 286.083C480.038 287.223 479.229 288.148 478.23 288.148H464.832C464.832 288.148 463.513 282.848 458.137 280.567L457.766 288.148H450.854L451.692 275.958C451.692 275.958 449.843 269.436 453.683 266.102C457.523 262.769 454.413 263.233 454.413 263.233L455.923 255.688L466.368 256.916L466.445 268.76L471.513 280.515L478.948 284.188C479.609 284.515 480.038 285.26 480.038 286.083L480.038 286.083H480.038Z" fill="#2F2E41"/>
<path d="M426.189 212.603L432.79 211.182L429.369 180.815L419.627 182.911L426.189 212.603Z" fill="#FFB6B6"/>
<path d="M451.995 220.89C452.262 221.999 451.691 223.087 450.72 223.32L437.692 226.448C437.692 226.448 435.172 221.602 429.412 220.639L430.821 228.097L424.1 229.71L422.069 217.662C422.069 217.662 418.749 211.752 421.704 207.614C424.66 203.476 421.744 204.653 421.744 204.653L421.451 196.964L431.894 195.72L434.734 207.219L442.407 217.466L450.493 219.302C451.213 219.465 451.803 220.089 451.995 220.89H451.995V220.89Z" fill="#2F2E41"/>
<path d="M413.567 36.3285L397.054 37.2458L392.467 46.4196L375.037 55.5933L377.789 100.83L371.5 123.583L372.285 129.901L433.749 128.066L430.08 60.1802L430.997 49.1717L419.071 45.5022L413.567 36.3285Z" fill="#6D67E4"/>
<path d="M372.744 121.186C372.744 121.186 358.983 145.5 372.744 148.938C378.865 150.468 385.35 151.498 390.663 152.171C397.025 152.977 402.88 148.61 403.935 142.285L418.613 192.741L433.291 189.071L436.043 162.807L453.877 180.642L451.638 252.37L468.151 251.453L485.581 173.476C485.581 173.476 486.498 167.972 472.738 160.633C458.977 153.294 434.208 129.442 434.208 129.442L392.009 116.599L372.744 121.186V121.186Z" fill="#2F2E41"/>
<path d="M401.641 137.24L377.789 121.644L407.145 90.4536C407.145 90.4536 423.658 84.032 428.245 108.801C432.832 133.57 435.584 155.587 435.584 155.587L401.641 137.24Z" fill="#2F2E41"/>
<path d="M352.428 90.6812L353.473 83.5733C354.235 78.3932 350.799 73.8723 346.139 72.7595V69.8126C346.139 67.2794 344.086 65.2258 341.553 65.2258C339.019 65.2258 336.966 67.2794 336.966 69.8126V73.7435L319.536 77.4408V72.5648C319.536 70.0315 317.482 67.9779 314.949 67.9779C312.415 67.9779 310.362 70.0315 310.362 72.5648V77.1989L308.629 76.7469C303.454 75.3969 299.366 81.3342 302.585 85.6053C302.626 85.6605 302.669 85.7157 302.712 85.771C307.008 91.295 308.236 96.2053 308.236 96.2053L305.167 112.777L308.662 147.232C309.113 151.673 312.935 155 317.395 154.835L351.331 153.578C355.788 153.413 359.356 149.819 359.478 145.361C359.91 129.48 359.96 94.9178 352.428 90.6812V90.6812Z" fill="#3F3D56"/>
<path d="M322.045 150.215C321.569 150.215 321.167 149.848 321.131 149.366L319.29 124.815C319.252 124.31 319.631 123.869 320.136 123.832C320.637 123.792 321.081 124.172 321.119 124.678L322.961 149.229C322.999 149.734 322.62 150.175 322.114 150.212C322.091 150.214 322.068 150.215 322.045 150.215V150.215Z" fill="#FFB6B6"/>
<path d="M308.234 97.1229C307.787 97.1229 307.395 96.7946 307.328 96.3386C307.255 95.8373 307.601 95.3715 308.103 95.298L352.439 88.8002C352.94 88.7277 353.406 89.0735 353.479 89.5747C353.553 90.076 353.206 90.5418 352.705 90.6153L308.369 97.1131C308.323 97.1198 308.279 97.1229 308.234 97.1229V97.1229Z" fill="#FFB6B6"/>
<path d="M47.792 362.929C47.4829 362.407 46.1458 362.965 45.8999 362.492C45.655 362.021 46.8973 361.303 47.6071 359.663C47.7351 359.367 48.5417 357.503 47.9446 356.928C46.8128 355.837 41.6335 360.337 39.821 358.864C39.4232 358.541 39.1453 357.896 37.9414 356.849C37.4625 356.432 37.1729 356.244 36.8926 356.314C36.4949 356.413 36.4634 356.945 36.0369 357.992C35.3974 359.561 35.0191 359.467 34.6465 360.719C34.3699 361.648 34.4331 362.189 34.1076 362.294C33.647 362.443 33.223 361.457 32.6392 361.545C32.0435 361.636 31.6834 362.784 31.5697 363.643C31.3562 365.256 31.9486 366.32 32.2769 367.44C32.6336 368.656 32.8454 370.505 32.0214 373.124L23.8662 396.101C25.6666 391.386 30.8797 378.462 33.0703 373.659C33.7026 372.272 34.4009 370.866 35.8345 370.311C37.2148 369.776 39.1105 370.095 41.5272 369.513C41.8094 369.445 42.5927 369.246 42.6913 368.785C42.7728 368.404 42.3121 368.192 42.3828 367.835C42.4778 367.357 43.3838 367.351 44.4971 366.799C45.2821 366.41 45.7712 365.947 46.1918 365.549C46.3186 365.429 48.2034 363.622 47.792 362.929H47.792Z" fill="#F2F2F2"/>
<path d="M15.707 375.025C15.362 375.026 15.2501 375.843 14.9471 375.828C14.6451 375.812 14.6511 374.995 14.0508 374.173C13.9425 374.025 13.2603 373.091 12.8057 373.218C11.944 373.459 12.658 377.3 11.4123 377.764C11.139 377.866 10.7422 377.817 9.88075 378.105C9.53806 378.22 9.36218 378.308 9.31566 378.466C9.24965 378.69 9.50179 378.859 9.8924 379.37C10.4782 380.137 10.3225 380.295 10.8296 380.839C11.206 381.243 11.4895 381.368 11.4473 381.558C11.3875 381.827 10.7812 381.751 10.6561 382.063C10.5285 382.381 10.988 382.889 11.3771 383.193C12.1071 383.763 12.8004 383.78 13.4445 383.941C14.1443 384.117 15.1133 384.547 16.1607 385.707L25.0851 396.339C23.2905 394.095 18.451 387.807 16.7258 385.346C16.2277 384.636 15.7389 383.888 15.8802 383.024C16.0162 382.192 16.7197 381.354 17.1313 380C17.1793 379.841 17.3075 379.4 17.1098 379.218C16.9464 379.068 16.7092 379.233 16.5545 379.095C16.3471 378.911 16.6056 378.464 16.6559 377.759C16.6913 377.261 16.6052 376.888 16.5312 376.566C16.5089 376.469 16.1662 375.023 15.707 375.025V375.025Z" fill="#F2F2F2"/>
<path d="M22.5892 376.57L22.3813 374.714L22.4763 374.574C22.9157 373.923 23.1397 373.288 23.1424 372.685C23.1428 372.589 23.1384 372.494 23.1339 372.396C23.116 372.009 23.0936 371.528 23.3444 370.967C23.4851 370.654 23.8801 369.93 24.4741 370.02C24.634 370.042 24.755 370.116 24.8468 370.202L24.8889 370.136C25.0739 369.853 25.2204 369.732 25.3615 369.616C25.4699 369.526 25.5819 369.434 25.7575 369.216C25.8345 369.12 25.8945 369.035 25.9451 368.965C26.0988 368.751 26.2995 368.495 26.6533 368.5C27.0314 368.518 27.2294 368.83 27.3606 369.037C27.5949 369.406 27.7011 369.672 27.7714 369.849C27.7969 369.913 27.826 369.986 27.8408 370.008C27.9626 370.188 28.953 370.02 29.3262 369.959C30.1642 369.819 30.8895 369.698 31.1882 370.227C31.4024 370.605 31.2433 371.105 30.7013 371.753C30.5325 371.954 30.3528 372.107 30.1934 372.227C30.3255 372.306 30.4438 372.427 30.4917 372.617C30.6046 373.067 30.218 373.518 29.3432 373.958C29.1259 374.068 28.8334 374.215 28.4236 374.286C28.2305 374.319 28.0567 374.327 27.908 374.332C27.9049 374.418 27.8847 374.511 27.8323 374.607C27.6787 374.889 27.3588 375.023 26.8769 374.991C26.3465 374.963 25.9098 374.862 25.5245 374.774C25.1881 374.696 24.8983 374.631 24.6708 374.646C24.2488 374.68 23.9236 375.018 23.542 375.456L22.5892 376.57L22.5892 376.57Z" fill="#F2F2F2"/>
<path d="M23.5534 365.523L21.8115 366.195L21.6513 366.138C20.9107 365.878 20.2395 365.823 19.6556 365.973C19.5628 365.997 19.4712 366.026 19.3779 366.055C19.0081 366.17 18.5484 366.314 17.9423 366.214C17.6042 366.157 16.8038 365.958 16.7398 365.361C16.7209 365.201 16.7613 365.065 16.8212 364.954L16.7464 364.93C16.4265 364.823 16.2723 364.712 16.1239 364.605C16.0097 364.523 15.8921 364.438 15.6361 364.324C15.5238 364.273 15.4271 364.237 15.3458 364.206C15.0997 364.111 14.8019 363.982 14.7164 363.639C14.6379 363.268 14.8901 362.998 15.057 362.818C15.3546 362.498 15.585 362.328 15.7379 362.215C15.7938 362.174 15.8566 362.127 15.8746 362.107C16.017 361.944 15.6037 361.029 15.4501 360.683C15.1024 359.908 14.8014 359.237 15.2369 358.814C15.5483 358.511 16.0722 358.538 16.8362 358.898C17.074 359.01 17.2678 359.145 17.4243 359.269C17.4671 359.121 17.5541 358.976 17.7256 358.881C18.132 358.658 18.666 358.918 19.3142 359.652C19.4759 359.834 19.6922 360.08 19.8646 360.459C19.9457 360.637 19.9976 360.803 20.0396 360.946C20.1236 360.927 20.2188 360.923 20.3248 360.949C20.6368 361.026 20.8479 361.302 20.939 361.776C21.0466 362.296 21.0595 362.744 21.0714 363.139C21.0822 363.484 21.0924 363.781 21.1649 363.997C21.3049 364.397 21.7141 364.626 22.2346 364.884L23.5534 365.523H23.5534Z" fill="#F2F2F2"/>
<path d="M22.5892 360.057L22.3813 358.202L22.4763 358.061C22.9157 357.411 23.1397 356.775 23.1424 356.173C23.1428 356.077 23.1384 355.981 23.1339 355.883C23.116 355.496 23.0936 355.015 23.3444 354.454C23.4851 354.142 23.8801 353.418 24.4741 353.507C24.634 353.53 24.755 353.603 24.8468 353.689L24.8889 353.623C25.0739 353.341 25.2204 353.22 25.3615 353.103C25.4699 353.014 25.5819 352.921 25.7575 352.703C25.8345 352.607 25.8945 352.523 25.9451 352.452C26.0988 352.238 26.2995 351.982 26.6533 351.987C27.0314 352.005 27.2294 352.318 27.3606 352.524C27.5949 352.894 27.7011 353.16 27.7714 353.336C27.7969 353.401 27.826 353.473 27.8408 353.496C27.9626 353.675 28.953 353.507 29.3262 353.446C30.1642 353.307 30.8895 353.186 31.1882 353.714C31.4024 354.092 31.2433 354.592 30.7013 355.24C30.5325 355.441 30.3528 355.595 30.1934 355.715C30.3255 355.794 30.4438 355.915 30.4917 356.104C30.6046 356.554 30.218 357.005 29.3432 357.446C29.1259 357.556 28.8334 357.703 28.4236 357.773C28.2305 357.807 28.0567 357.815 27.908 357.819C27.9049 357.905 27.8847 357.998 27.8323 358.094C27.6787 358.376 27.3588 358.511 26.8769 358.478C26.3465 358.451 25.9098 358.349 25.5245 358.261C25.1881 358.184 24.8983 358.118 24.6708 358.134C24.2488 358.168 23.9236 358.505 23.542 358.943L22.5892 360.057L22.5892 360.057Z" fill="#F2F2F2"/>
<path d="M24.4873 396.071L24.0985 395.827L24.0044 395.379L24.0985 395.827L23.6452 395.879C23.638 395.837 23.6134 395.741 23.5762 395.589C23.3733 394.76 22.7547 392.235 22.2387 388.259C21.8785 385.484 21.6747 382.63 21.6326 379.777C21.5905 376.919 21.7258 374.756 21.8342 373.017C21.9162 371.705 22.0156 370.456 22.1133 369.24C22.3731 365.99 22.6181 362.919 22.4358 359.52C22.3955 358.762 22.3108 357.182 21.388 355.502C20.8528 354.527 20.1155 353.661 19.1963 352.93L19.7679 352.212C20.7824 353.02 21.5981 353.979 22.1925 355.061C23.2156 356.924 23.3079 358.645 23.3523 359.472C23.5377 362.931 23.29 366.031 23.0275 369.312C22.9307 370.524 22.8313 371.768 22.7498 373.074C22.6423 374.797 22.5084 376.942 22.55 379.763C22.5912 382.582 22.7928 385.4 23.148 388.141C23.6578 392.067 24.2674 394.554 24.4676 395.371C24.5742 395.807 24.5966 395.898 24.4873 396.071H24.4873Z" fill="#F2F2F2"/>
<path d="M17.5141 354.388C17.4764 354.388 17.4384 354.387 17.3998 354.384C16.6186 354.342 15.8952 353.875 15.2493 352.995C14.9465 352.581 14.7915 352.109 14.4824 351.167C14.4345 351.022 14.2016 350.286 14.06 349.272C13.9673 348.61 13.9789 348.334 14.1102 348.089C14.2558 347.817 14.4914 347.627 14.7566 347.499C14.7449 347.411 14.7543 347.32 14.7924 347.228C14.9487 346.846 15.3644 346.896 15.5893 346.92C15.703 346.934 15.845 346.953 15.9982 346.945C16.2392 346.933 16.3687 346.862 16.5649 346.754C16.7526 346.651 16.9859 346.523 17.3322 346.452C18.0149 346.31 18.5869 346.503 18.7755 346.567C19.7676 346.897 20.2568 347.669 20.823 348.562C20.9359 348.741 21.3233 349.393 21.5791 350.287C21.7636 350.933 21.7377 351.219 21.6821 351.432C21.5692 351.87 21.3027 352.121 20.6259 352.675C19.919 353.255 19.5643 353.545 19.2597 353.721C18.5506 354.131 18.1053 354.388 17.5141 354.388L17.5141 354.388Z" fill="#F2F2F2"/>
<path d="M560.799 258.414L561.22 225.633L548.636 222.171L549.017 258.419L546.121 285.205L546.197 285.233C544.983 286.453 543.998 288.401 543.579 290.704C542.814 294.906 544.216 298.681 546.711 299.135C549.206 299.589 551.849 296.551 552.614 292.349C552.928 290.624 552.872 288.976 552.53 287.595L552.642 287.637L560.799 258.414V258.414Z" fill="#A0616A"/>
<path d="M537.913 181.356C537.913 181.356 543.623 176.988 547.654 183.371C551.686 189.754 562.771 222.003 562.771 222.003C562.771 222.003 565.977 236.784 565.214 238.967C564.451 241.151 563.443 260.369 563.443 260.369L547.693 257.512L548.074 238.967L533.065 215.01L537.913 181.355V181.356Z" fill="#CCCCCC"/>
<path d="M432.429 169.45L454.501 193.691L466.059 187.63L441.034 161.403L424.864 139.854L424.789 139.885C424.843 138.164 424.233 136.068 422.967 134.1C420.657 130.507 417.056 128.706 414.922 130.077C412.789 131.449 412.932 135.473 415.242 139.066C416.19 140.541 417.356 141.707 418.549 142.482L418.439 142.528L432.429 169.45H432.429Z" fill="#A0616A"/>
<path d="M503.02 210.133C503.02 210.133 501.828 217.223 494.525 215.311C487.222 213.399 457.106 197.403 457.106 197.403C457.106 197.403 444.673 188.791 443.74 186.674C442.806 184.558 430.423 169.827 430.423 169.827L443.882 161.162L456.264 174.973L483.586 182.232L503.02 210.133V210.133Z" fill="#CCCCCC"/>
<path d="M507.203 162.824C516.884 162.824 524.732 154.976 524.732 145.295C524.732 135.614 516.884 127.766 507.203 127.766C497.522 127.766 489.674 135.614 489.674 145.295C489.674 154.976 497.522 162.824 507.203 162.824Z" fill="#A0616A"/>
<path d="M537.953 452.372L527.074 452.371L521.898 410.407L537.955 410.409L537.953 452.372Z" fill="#A0616A"/>
<path d="M500.679 452.125C500.34 452.695 500.162 454.537 500.162 455.2C500.162 457.24 501.815 458.893 503.854 458.893H537.546C538.937 458.893 540.065 457.765 540.065 456.374V454.971C540.065 454.971 541.732 450.755 538.3 445.559C538.3 445.559 534.035 449.628 527.663 443.255L525.783 439.851L512.18 449.799L504.64 450.727C502.99 450.93 501.528 450.696 500.679 452.125H500.679V452.125Z" fill="#2F2E41"/>
<path d="M506.762 452.372L495.883 452.371L490.708 410.407L506.764 410.409L506.762 452.372Z" fill="#A0616A"/>
<path d="M469.488 452.125C469.149 452.695 468.971 454.537 468.971 455.2C468.971 457.24 470.624 458.893 472.663 458.893H506.355C507.746 458.893 508.874 457.765 508.874 456.374V454.971C508.874 454.971 510.541 450.755 507.109 445.559C507.109 445.559 502.844 449.628 496.472 443.255L494.592 439.851L480.989 449.799L473.449 450.727C471.799 450.93 470.337 450.696 469.488 452.125H469.488V452.125Z" fill="#2F2E41"/>
<path d="M545.669 270.259L475.031 273.929L490.626 433.552L506.222 432.634L511.726 336.31L514.019 301.909L523.374 429.994L539.247 429.882L545.669 270.259Z" fill="#2F2E41"/>
<path d="M524.743 167.513L497.989 166.596L480.076 184.409V242.763L473.081 279.433C473.081 279.433 520.13 274.846 529.355 284.02C538.581 293.193 555.186 286.772 555.186 286.772L546.883 238.256L543.193 182.191L524.743 167.513Z" fill="#CCCCCC"/>
<path d="M514.919 162.468L500.007 158.945L497.706 149.904C497.706 149.904 497.651 145.642 495.639 145.167C493.626 144.691 490.078 141.729 490.078 141.729L493.516 136.168C493.516 136.168 485.23 135.272 487.717 133.736C490.205 132.199 490.564 132.891 490.918 129.181C491.648 121.504 515.139 122.624 516.964 126.837C516.964 126.837 519.982 127.55 521.518 130.037C523.055 132.524 523.824 133.768 524.83 134.006C525.836 134.243 526.366 136.493 526.366 136.493C526.366 136.493 529.915 139.456 528.671 140.224C527.428 140.993 526.477 145.017 526.477 145.017C526.477 145.017 529.788 148.985 522.381 157.857L518.435 164.206L514.919 162.468V162.468Z" fill="#2F2E41"/>
<path d="M534.068 188.247L535.114 181.139C535.875 175.959 532.439 171.438 527.78 170.326V167.379C527.78 164.845 525.726 162.792 523.193 162.792C520.659 162.792 518.606 164.845 518.606 167.379V171.31L501.176 175.007V170.131C501.176 167.598 499.122 165.544 496.589 165.544C494.056 165.544 492.002 167.598 492.002 170.131V174.765L490.269 174.313C485.094 172.963 481.006 178.9 484.225 183.171C484.266 183.227 484.309 183.282 484.352 183.337C488.648 188.861 489.876 193.771 489.876 193.771L486.807 210.344L490.302 244.798C490.753 249.239 494.575 252.566 499.035 252.401L532.972 251.144C537.428 250.979 540.996 247.385 541.118 242.927C541.55 227.046 541.6 192.484 534.068 188.247V188.247Z" fill="#3F3D56"/>
<path d="M503.685 247.781C503.209 247.781 502.807 247.414 502.771 246.932L500.93 222.381C500.892 221.876 501.271 221.435 501.776 221.398C502.277 221.358 502.722 221.739 502.759 222.244L504.601 246.795C504.639 247.301 504.26 247.741 503.755 247.778C503.731 247.78 503.708 247.781 503.685 247.781V247.781Z" fill="#FFB6B6"/>
<path d="M489.874 194.689C489.427 194.689 489.035 194.361 488.968 193.905C488.895 193.403 489.242 192.938 489.743 192.864L534.079 186.366C534.58 186.294 535.046 186.64 535.119 187.141C535.193 187.642 534.846 188.108 534.345 188.181L490.009 194.679C489.964 194.686 489.919 194.689 489.874 194.689V194.689Z" fill="#FFB6B6"/>
<path d="M491.898 249.25L474.572 207.419L479.159 209.254L497.611 246.317L491.898 249.25Z" fill="#3F3D56"/>
<path d="M600 458.838C600 459.264 599.655 459.609 599.23 459.609H65.1338V458.068H599.23C599.655 458.068 600 458.413 600 458.838V458.838Z" fill="#E6E6E6"/>
<path d="M410.686 131.8C413.662 134.599 417.517 135.332 419.298 133.439C421.079 131.545 420.111 127.741 417.134 124.942C415.96 123.807 414.532 122.97 412.969 122.501L400.213 110.801L394.85 116.904L407.994 127.79C408.558 129.322 409.482 130.697 410.686 131.8V131.8Z" fill="#FFB6B6"/>
<path d="M399.77 71.1813C399.77 71.1813 384.218 51.8074 378.248 53.2999C370.909 55.1347 372.743 62.4737 365.152 82.1019C363.251 87.0177 361.254 91.7819 365.091 95.3955L375.67 105.359L398.223 124.374L407.296 114.877L389.271 91.6333L399.77 71.1813L399.77 71.1813Z" fill="#6D67E4"/>
</g>
<defs>
<clipPath id="clip0_121_4">
<rect width="600" height="459.609" fill="white"/>
</clipPath>
</defs>
</svg>
