<svg width="30" height="33" viewBox="0 0 30 33" fill="none" xmlns="http://www.w3.org/2000/svg">
<rect width="3.06329" height="35.6045" rx="1.53164" transform="matrix(0.845068 -0.534658 0.52519 0.850985 8.71222 1.63782)" fill="#6D67E4"/>
<rect width="3.06329" height="35.6045" rx="1.53164" transform="matrix(-0.845068 -0.534658 -0.52519 0.850985 21.2878 1.77606)" fill="#6D67E4"/>
<rect width="3.09068" height="28.8294" rx="1.54534" transform="matrix(0 -1 -1 0 29.5078 31.7319)" fill="#6D67E4"/>
<rect width="3.09068" height="14.9235" rx="1.54534" transform="matrix(0 -1 -1 0 22.3851 20.3994)" fill="#6D67E4"/>
<rect width="3.05253" height="11.3325" rx="1.52626" transform="matrix(1 0 0 -1 13.5668 11.4708)" fill="#6D67E4"/>
<rect width="3.04786" height="11.2409" rx="1.52393" transform="matrix(0.849345 -0.527837 -0.532003 -0.846742 20.2689 32.2132)" fill="#6D67E4"/>
<rect width="3.04786" height="11.1609" rx="1.52393" transform="matrix(-0.849345 -0.527837 0.532003 -0.846742 9.66608 32.1717)" fill="#6D67E4"/>
<rect x="12.2101" y="24.1769" width="2.74727" height="5.42671" rx="1.37364" transform="rotate(-90 12.2101 24.1769)" fill="#6D67E4"/>
</svg>
